<svg xmlns="http://www.w3.org/2000/svg" width="52" height="102" viewBox="0 0 52 102">
    <g fill="#FFF" fill-rule="nonzero">
        <path stroke="#FFF" stroke-width="2" d="M47.032 1H4.968A3.93 3.93 0 0 0 1 4.968v92.064A3.93 3.93 0 0 0 4.968 101h42.064A3.93 3.93 0 0 0 51 97.032V4.968A3.93 3.93 0 0 0 47.032 1zm2.38 96.032c0 1.349-1.031 2.38-2.38 2.38H4.968c-1.349 0-2.38-1.031-2.38-2.38V86.714h46.825v10.318zm0-11.905H2.588V16.873h46.826v68.254zm0-69.841H2.588V4.968c0-1.349 1.032-2.38 2.381-2.38h42.064c1.349 0 2.38 1.031 2.38 2.38v10.318z"/>
        <path d="M32.746 8.143H18.46c-.476 0-.793.476-.793 1.19 0 .715.317 1.19.793 1.19h14.286c.476 0 .794-.475.794-1.19 0-.714-.318-1.19-.794-1.19zM25.603 97.032a3.98 3.98 0 0 0 3.968-3.969 3.98 3.98 0 0 0-3.968-3.968 3.98 3.98 0 0 0-3.968 3.968 3.98 3.98 0 0 0 3.968 3.969zm0-6.614a2.653 2.653 0 0 1 2.646 2.645 2.653 2.653 0 0 1-2.646 2.646 2.653 2.653 0 0 1-2.645-2.646 2.653 2.653 0 0 1 2.645-2.645z"/>
    </g>
</svg>
