<svg xmlns="http://www.w3.org/2000/svg" width="94" height="69" viewBox="0 0 94 69">
    <path fill="#FFF" fill-rule="nonzero" d="M85.826 69H8.174C3.66 69 0 65.365 0 60.882V16.235c0-4.483 3.66-8.117 8.174-8.117h2.043c0-2.24 1.831-4.06 4.087-4.06h4.087c2.256 0 4.087 1.82 4.087 4.06h4.087s2.3-.254 4.087-2.03L34.74 2.03S36.335 0 38.826 0h16.348c2.681 0 4.087 2.03 4.087 2.03l4.087 4.058c1.788 1.776 4.087 2.03 4.087 2.03h18.391c4.514 0 8.174 3.634 8.174 8.117v44.647C94 65.365 90.34 69 85.826 69zm4.087-52.765c0-2.24-1.83-4.059-4.087-4.059l-18.843-.026c-.623-.067-3.86-.546-6.525-3.192l-4.352-4.323-.213-.306c-.002-.002-.319-.27-.72-.27H38.827c-.313 0-.766.361-.866.469l-.154.194-4.264 4.234c-2.667 2.648-5.904 3.125-6.525 3.192l-8.483.012c-.049.004-.096.016-.143.016h-4.087c-.028 0-.053-.008-.081-.008l-6.05.008c-2.255 0-4.086 1.819-4.086 4.06v44.646c0 2.24 1.83 4.06 4.087 4.06h77.652c2.256 0 4.087-1.82 4.087-4.06V16.235zM47 60.882c-12.414 0-22.478-9.994-22.478-22.323S34.586 16.235 47 16.235c12.414 0 22.478 9.995 22.478 22.324 0 12.329-10.064 22.323-22.478 22.323zm0-40.588c-10.158 0-18.391 8.177-18.391 18.265 0 10.088 8.233 18.265 18.391 18.265 10.158 0 18.391-8.177 18.391-18.265 0-10.088-8.233-18.265-18.391-18.265zm0 28.412c-5.644 0-10.217-4.542-10.217-10.147S41.356 28.412 47 28.412s10.217 4.542 10.217 10.147S52.644 48.706 47 48.706zm0-16.235c-3.384 0-6.13 2.727-6.13 6.088 0 3.363 2.746 6.088 6.13 6.088 3.386 0 6.13-2.725 6.13-6.088 0-3.36-2.744-6.088-6.13-6.088zm-28.609-8.118h-8.174a2.035 2.035 0 0 1-2.043-2.03v-4.058c0-1.12.913-2.03 2.043-2.03h8.174c1.13 0 2.044.91 2.044 2.03v4.059c0 1.122-.914 2.029-2.044 2.029z"/>
</svg>
